# xmcd
#
# Track frame offsets:
#	150
#	19499
#	36229
#	50131
#	67257
#	84078
#	100650
#	118015
#	132501
#	147839
#	165481
#	184987
#	204029
#	220471
#	235399
#	248294
#	261354
#	277536
#	291272
#	306761
#	326020
#
# Disc length: 4488 seconds
#
# Revision: 1
# Processed by: cddbd v1.5.2PL0 Copyright (c) Steve Scherf et al.
# Submitted via: audiograbber 1.83.01
#
DISCID=37118615
DTITLE=Various Artist - Eesti Rahva Tantsuhitid
DYEAR=2008
DGENRE=Dance
TTITLE0=Toomas Anni - Nii Kuis Üks Pääsuke (Dance Version)
TTITLE1=Kondor - Nuud Teie Auks
TTITLE2=Sergei Maasin - Õnnelind
TTITLE3=Gunnar Loho - Näen Sind Jälle
TTITLE4=Hellad Velled - Stop
TTITLE5=Anne Veski - Laululind
TTITLE6=Anmatino - Retromelomaan
TTITLE7=Tänatehtu - Silmad Tumedad
TTITLE8=Ergo and Päris Anny - Võta Mu Laul
TTITLE9=Kihnu Poisid - Selle Suve Lauluga
TTITLE10=Armin - Sõnad
TTITLE11=Päris Anny - Muru Kodu Juures
TTITLE12=Detail - Kus Küll Olla Võid Sa
TTITLE13=Kaksi - Sa Lase Mul Minna
TTITLE14=Arlet Palmiste - Tsirkus
TTITLE15=Night Light Duo - Rates Kain
TTITLE16=Elumees - Suveöö Unenägu
TTITLE17=Nööp - Iga Suve Trend
TTITLE18=Mati Nuude - Armastus Ja Autobuss
TTITLE19=Richie and Rita - Leebe
TTITLE20=Nukker Kukeke - Jälle Teel
EXTD=
EXTT0=
EXTT1=
EXTT2=
EXTT3=
EXTT4=
EXTT5=
EXTT6=
EXTT7=
EXTT8=
EXTT9=
EXTT10=
EXTT11=
EXTT12=
EXTT13=
EXTT14=
EXTT15=
EXTT16=
EXTT17=
EXTT18=
EXTT19=
EXTT20=
PLAYORDER=
